<svg xmlns="http://www.w3.org/2000/svg" width="22" height="21" fill="none" viewBox="0 0 22 21"><path fill="url(#paint0_linear)" d="M20.4856 9.25309L11.7494 0.516782C11.0603 -0.172261 9.9428 -0.172261 9.25376 0.516782C8.56472 1.20582 8.56472 2.32334 9.25376 3.01238L16.7414 10.5L9.25376 17.9876C8.56472 18.6767 8.56472 19.7942 9.25376 20.4832C9.9428 21.1723 11.0603 21.1723 11.7494 20.4832L20.4856 11.7469C21.1747 11.0596 21.1747 9.94213 20.4856 9.25309ZM9.98127 8.72407L3.04541 1.41395C2.34848 0.680334 1.21964 0.680334 0.522701 1.41395C-0.174234 2.14757 -0.174234 3.33767 0.522701 4.07218L6.19766 10.0532L0.522701 16.0342C-0.174234 16.7678 -0.174234 17.9588 0.522701 18.6924C1.21964 19.4261 2.34848 19.4261 3.04541 18.6924L9.98127 11.3823C10.6782 10.6487 10.6782 9.45858 9.98127 8.72407Z"/><defs><linearGradient id="paint0_linear" x1="-4.125" x2="24.38" y1="0" y2="6.962" gradientUnits="userSpaceOnUse"><stop stop-color="#C9C9C9"/><stop offset="1" stop-color="#ECECEC"/></linearGradient></defs></svg>